<svg width="17" height="13" viewBox="0 0 17 13" fill="none" xmlns="http://www.w3.org/2000/svg">
<path d="M9.50527 1.75635C5.73241 2.79087 2.96025 4.74403 1.24506 7.49539C-0.47013 10.2467 1.1787 12.0402 3.93211 11.808C6.68552 11.5758 11.2966 10.0166 14.05 7.95987C16.8035 5.90311 16.6707 4.44345 16.2063 3.3819C15.7419 2.32034 13.6188 0.628422 9.50527 1.75635Z" fill="#FAB13D"/>
<path fill-rule="evenodd" clip-rule="evenodd" d="M0.908909 7.28581C2.68586 4.43538 5.54946 2.43035 9.40035 1.37443C13.6429 0.211118 16.0027 1.92939 16.5687 3.22306C16.8245 3.8078 17.0047 4.54396 16.7099 5.4233C16.421 6.28555 15.6953 7.2246 14.2867 8.27683C12.8692 9.33565 10.9902 10.2556 9.12725 10.9396C7.26475 11.6233 5.38776 12.0823 3.96513 12.2023C2.51534 12.3245 1.24527 11.9225 0.589878 10.9995C-0.0811726 10.0545 0.00630839 8.73369 0.908909 7.28581ZM1.24482 7.49522C2.96 4.74385 5.73217 2.79069 9.50503 1.75617C13.6186 0.628245 15.7416 2.32017 16.2061 3.38172C16.6705 4.44328 16.8032 5.90294 14.0498 7.9597C11.2964 10.0165 6.68528 11.5756 3.93187 11.8078C1.17846 12.0401 -0.47037 10.2466 1.24482 7.49522Z" fill="#B7690D"/>
<path d="M4.20544 4.91902C2.65556 5.8675 1.67072 7.09672 1.2605 8.54569C0.85028 9.99465 1.81742 10.5821 3.01597 10.1231C4.21453 9.6642 4.4912 8.2592 5.4543 6.98617C6.4174 5.71314 7.45921 5.23044 7.45921 4.5324C7.45921 3.99377 5.89527 3.88489 4.20544 4.91902Z" fill="#FCC66F"/>
<path fill-rule="evenodd" clip-rule="evenodd" d="M3.62072 6.32714C3.78271 6.47394 3.79502 6.72427 3.64822 6.88626C3.05082 7.54546 2.79449 8.11259 2.59682 8.54993C2.57272 8.60326 2.54949 8.65466 2.52662 8.70406C2.43477 8.90245 2.1995 8.98881 2.00111 8.89697C1.80273 8.80512 1.71636 8.56985 1.80821 8.37146C1.8295 8.32547 1.85174 8.27614 1.87538 8.22368C2.07592 7.77873 2.3776 7.1094 3.06161 6.35464C3.20841 6.19265 3.45873 6.18034 3.62072 6.32714Z" fill="#FFDFAD"/>
<path fill-rule="evenodd" clip-rule="evenodd" d="M2.51953 11.7329C5.55842 11.1224 9.54319 9.59806 12.097 7.69042C15.172 5.39343 15.0238 3.76329 14.5051 2.57775C14.3719 2.27343 14.1168 1.92274 13.7333 1.59082C15.1378 1.96646 15.9417 2.77656 16.2065 3.38178C16.6709 4.44334 16.8036 5.90299 14.0502 7.95976C11.2968 10.0165 6.68567 11.5757 3.93226 11.8079C3.41789 11.8513 2.94207 11.824 2.51953 11.7329Z" fill="#EDA024"/>
<path d="M6.58633 8.09239C5.84324 6.63276 3.64494 5.86976 2.63867 5.67072C3.01022 5.06033 3.76657 4.55388 4.09831 4.37695C5.71718 5.38543 6.43152 7.27411 6.58633 8.09239Z" fill="#D08814"/>
<path d="M9.9279 6.77676C9.0601 4.80177 7.059 3.26522 6.05273 3.06618C6.6961 2.52754 7.95034 2.24065 8.28208 2.06372C10.1374 3.06618 9.77309 5.95847 9.9279 6.77676Z" fill="#A56112"/>
<path d="M13.1894 4.50259C12.3814 2.48272 11.3976 2.05885 10.5311 1.50978C10.9899 1.31568 12.1727 1.36084 12.546 1.31568C13.324 2.39294 13.324 3.26075 13.1894 4.50259Z" fill="#9C5807"/>
<path fill-rule="evenodd" clip-rule="evenodd" d="M3.94394 4.39353C3.96699 4.28668 4.07229 4.21875 4.17914 4.24179C4.61786 4.33642 5.17474 4.69333 5.68568 5.28926C6.20114 5.89046 6.68255 6.74884 6.96277 7.87356C6.9892 7.97962 6.92464 8.08703 6.81857 8.11345C6.71251 8.13988 6.60511 8.07532 6.57868 7.96926C6.31279 6.90204 5.85908 6.09964 5.38517 5.5469C4.90674 4.98888 4.42002 4.69869 4.09568 4.62873C3.98883 4.60568 3.9209 4.50038 3.94394 4.39353Z" fill="#FFDFAC"/>
<path fill-rule="evenodd" clip-rule="evenodd" d="M8.38859 2.02615C8.45069 1.93621 8.57396 1.91364 8.6639 1.97574C9.02364 2.22413 9.43516 2.78856 9.75581 3.57302C10.0797 4.36541 10.3204 5.40451 10.3204 6.62722C10.3204 6.73652 10.2318 6.82513 10.1225 6.82513C10.0132 6.82513 9.92455 6.73652 9.92455 6.62722C9.92455 5.45599 9.69391 4.46775 9.38941 3.72279C9.08166 2.9699 8.70767 2.48698 8.439 2.30147C8.34905 2.23937 8.32648 2.1161 8.38859 2.02615Z" fill="#FFDFAC"/>
<path fill-rule="evenodd" clip-rule="evenodd" d="M12.543 1.28738C12.6124 1.20292 12.7371 1.19069 12.8216 1.26007C13.1817 1.55589 13.4365 2.0586 13.5729 2.62338C13.7103 3.19283 13.7337 3.85025 13.6083 4.4814C13.587 4.58861 13.4828 4.65825 13.3756 4.63694C13.2684 4.61563 13.1987 4.51144 13.22 4.40423C13.334 3.83094 13.3125 3.23155 13.1881 2.71626C13.0626 2.19629 12.8386 1.78632 12.5703 1.56595C12.4859 1.49656 12.4737 1.37185 12.543 1.28738Z" fill="#FFDFAC"/>
<path d="M13.1402 7.08506C13.0894 7.29254 12.924 7.43032 12.7709 7.39279C12.6178 7.35526 12.5348 7.15664 12.5857 6.94916C12.6365 6.74168 12.8019 6.60391 12.955 6.64144C13.1082 6.67896 13.1911 6.87758 13.1402 7.08506Z" fill="#D48A15"/>
<path d="M11.7702 7.60624C11.7289 7.77478 11.5946 7.8867 11.4702 7.85622C11.3458 7.82573 11.2784 7.66439 11.3197 7.49585C11.361 7.3273 11.4954 7.21539 11.6198 7.24587C11.7442 7.27635 11.8115 7.4377 11.7702 7.60624Z" fill="#D48A15"/>
<path d="M12.7507 8.11479C12.7094 8.28333 12.5751 8.39525 12.4507 8.36476C12.3263 8.33428 12.2589 8.17294 12.3002 8.00439C12.3415 7.83585 12.4758 7.72393 12.6002 7.75442C12.7246 7.7849 12.792 7.94624 12.7507 8.11479Z" fill="#D48A15"/>
<path d="M12.4011 6.23026C12.3598 6.39881 12.2255 6.51073 12.1011 6.48024C11.9767 6.44976 11.9093 6.28841 11.9506 6.11987C11.9919 5.95133 12.1262 5.83941 12.2506 5.86989C12.375 5.90038 12.4424 6.06172 12.4011 6.23026Z" fill="#D48A15"/>
<path d="M14.1052 6.66093C14.0639 6.82947 13.9296 6.94139 13.8052 6.9109C13.6808 6.88042 13.6134 6.71908 13.6547 6.55053C13.696 6.38199 13.8303 6.27007 13.9547 6.30056C14.0791 6.33104 14.1465 6.49239 14.1052 6.66093Z" fill="#D48A15"/>
<path d="M13.6219 5.97107C13.5754 6.16114 13.4239 6.28735 13.2836 6.25297C13.1433 6.21859 13.0673 6.03665 13.1139 5.84658C13.1605 5.65652 13.312 5.53031 13.4522 5.56469C13.5925 5.59906 13.6685 5.78101 13.6219 5.97107Z" fill="#D48A15"/>
<path d="M15.1483 6.08093C15.1017 6.271 14.9502 6.39721 14.81 6.36283C14.6697 6.32845 14.5937 6.14651 14.6403 5.95645C14.6869 5.76638 14.8383 5.64017 14.9786 5.67455C15.1189 5.70893 15.1949 5.89087 15.1483 6.08093Z" fill="#D48A15"/>
<path d="M14.7713 5.26819C14.7248 5.45826 14.5733 5.58447 14.433 5.55009C14.2927 5.51571 14.2167 5.33377 14.2633 5.1437C14.3099 4.95364 14.4614 4.82743 14.6017 4.86181C14.742 4.89618 14.8179 5.07813 14.7713 5.26819Z" fill="#D48A15"/>
<path d="M16.0887 5.13904C16.0421 5.3291 15.8907 5.45531 15.7504 5.42094C15.6101 5.38656 15.5341 5.20461 15.5807 5.01455C15.6273 4.82449 15.7788 4.69828 15.919 4.73265C16.0593 4.76703 16.1353 4.94898 16.0887 5.13904Z" fill="#D48A15"/>
<path d="M14.7226 6.9124C14.6921 7.03678 14.593 7.11938 14.5012 7.09688C14.4094 7.07439 14.3596 6.95531 14.3901 6.83093C14.4206 6.70655 14.5197 6.62395 14.6115 6.64645C14.7033 6.66895 14.7531 6.78802 14.7226 6.9124Z" fill="#D48A15"/>
<path d="M13.6894 7.69048C13.6589 7.81486 13.5598 7.89746 13.468 7.87496C13.3762 7.85246 13.3264 7.73339 13.3569 7.60901C13.3874 7.48462 13.4865 7.40203 13.5783 7.42452C13.6701 7.44702 13.7199 7.56609 13.6894 7.69048Z" fill="#D48A15"/>
<path d="M10.8544 9.20903C10.8239 9.33342 10.7248 9.41601 10.633 9.39351C10.5412 9.37102 10.4915 9.25195 10.522 9.12756C10.5524 9.00318 10.6516 8.92058 10.7434 8.94308C10.8352 8.96558 10.8849 9.08465 10.8544 9.20903Z" fill="#D48A15"/>
<path d="M11.9306 8.46074C11.9001 8.58513 11.801 8.66772 11.7092 8.64522C11.6174 8.62273 11.5677 8.50365 11.5981 8.37927C11.6286 8.25489 11.7277 8.17229 11.8196 8.19479C11.9114 8.21729 11.9611 8.33636 11.9306 8.46074Z" fill="#D48A15"/>
<path d="M11.1356 8.30921C11.1108 8.41036 11.0302 8.47752 10.9556 8.45923C10.8809 8.44094 10.8405 8.34411 10.8653 8.24296C10.8901 8.14181 10.9707 8.07465 11.0453 8.09294C11.12 8.11123 11.1604 8.20806 11.1356 8.30921Z" fill="#D48A15"/>
<path d="M11.4882 6.76079C11.4577 6.88517 11.3586 6.96777 11.2668 6.94527C11.175 6.92277 11.1253 6.8037 11.1557 6.67932C11.1862 6.55493 11.2854 6.47234 11.3772 6.49484C11.469 6.51733 11.5187 6.6364 11.4882 6.76079Z" fill="#D48A15"/>
<path d="M13.0292 5.46855C12.9987 5.59294 12.8996 5.67553 12.8078 5.65304C12.716 5.63054 12.6663 5.51147 12.6968 5.38708C12.7272 5.2627 12.8264 5.1801 12.9182 5.2026C13.01 5.2251 13.0597 5.34417 13.0292 5.46855Z" fill="#D48A15"/>
<path d="M14.0458 4.64531C14.0153 4.76969 13.9162 4.85229 13.8244 4.82979C13.7326 4.8073 13.6829 4.68822 13.7134 4.56384C13.7438 4.43946 13.843 4.35686 13.9348 4.37936C14.0266 4.40186 14.0763 4.52093 14.0458 4.64531Z" fill="#D48A15"/>
<path d="M15.1767 4.44536C15.1462 4.56974 15.0471 4.65234 14.9553 4.62984C14.8635 4.60734 14.8137 4.48827 14.8442 4.36389C14.8747 4.2395 14.9738 4.15691 15.0656 4.17941C15.1575 4.2019 15.2072 4.32098 15.1767 4.44536Z" fill="#D48A15"/>
<path d="M15.8896 4.36382C15.8591 4.4882 15.76 4.5708 15.6682 4.5483C15.5764 4.5258 15.5266 4.40673 15.5571 4.28235C15.5876 4.15796 15.6867 4.07537 15.7785 4.09786C15.8703 4.12036 15.9201 4.23943 15.8896 4.36382Z" fill="#D48A15"/>
</svg>
