<svg width="57" height="58" viewBox="0 0 57 58" fill="none" xmlns="http://www.w3.org/2000/svg">
<path d="M14.3041 5.23242L7.22363 14.673V47.7152C7.22363 48.9671 7.72095 50.1677 8.60618 51.0529C9.49141 51.9382 10.692 52.4355 11.9439 52.4355H44.9861C46.238 52.4355 47.4386 51.9382 48.3238 51.0529C49.2091 50.1677 49.7064 48.9671 49.7064 47.7152V14.673L42.6259 5.23242H14.3041Z" stroke="#868E96" stroke-width="4.7203" stroke-linecap="round" stroke-linejoin="round"/>
<path d="M7.22363 14.6731H49.7064" stroke="#868E96" stroke-width="4.7203" stroke-linecap="round" stroke-linejoin="round"/>
<path d="M37.9066 24.1138C37.9066 26.6176 36.912 29.0188 35.1415 30.7893C33.3711 32.5597 30.9698 33.5544 28.466 33.5544C25.9622 33.5544 23.5609 32.5597 21.7905 30.7893C20.02 29.0188 19.0254 26.6176 19.0254 24.1138" stroke="#868E96" stroke-width="4.7203" stroke-linecap="round" stroke-linejoin="round"/>
</svg>
