<svg width="14" height="13" viewBox="0 0 14 13" fill="none" xmlns="http://www.w3.org/2000/svg">
<path d="M13.1716 11.2079L10.7034 8.73966C10.5799 8.64093 10.4319 8.56688 10.2838 8.56688H9.88884C10.5553 7.703 10.9749 6.61698 10.9749 5.40755C10.9749 2.59377 8.65473 0.273637 5.84095 0.273637C3.00248 0.273637 0.707031 2.59377 0.707031 5.40755C0.707031 8.24601 3.00248 10.5415 5.84095 10.5415C7.0257 10.5415 8.11172 10.1465 9.00028 9.45545V9.87504C9.00028 10.0231 9.04964 10.1712 9.17305 10.2946L11.6166 12.7382C11.8634 12.985 12.2337 12.985 12.4558 12.7382L13.1469 12.0471C13.3937 11.8249 13.3937 11.4547 13.1716 11.2079ZM5.84095 8.56688C4.0885 8.56688 2.68161 7.15999 2.68161 5.40755C2.68161 3.67979 4.0885 2.24822 5.84095 2.24822C7.56871 2.24822 9.00028 3.67979 9.00028 5.40755C9.00028 7.15999 7.56871 8.56688 5.84095 8.56688Z" fill="#FF2253"/>
</svg>
