<svg width="16" height="14" viewBox="0 0 16 14" fill="none" xmlns="http://www.w3.org/2000/svg">
<path d="M13.5322 8.78906C13.8102 8.78906 14.0629 8.61218 14.1387 8.33423L15.3263 3.07837C15.4021 2.69934 15.1241 2.32031 14.7198 2.32031H4.81458L4.58716 1.2085C4.51135 0.930542 4.25867 0.703125 3.98071 0.703125H1.40332C1.04956 0.703125 0.796875 0.981079 0.796875 1.30957V1.71387C0.796875 2.06763 1.04956 2.32031 1.40332 2.32031H3.14685L4.94092 11.0127C4.48608 11.2654 4.18286 11.7455 4.2334 12.3267C4.25867 13.0342 4.83984 13.6154 5.57263 13.6406C6.38123 13.6912 7.06348 13.0342 7.06348 12.2256C7.06348 11.8466 6.8866 11.4928 6.63391 11.2148H11.915C11.6624 11.4928 11.4855 11.8718 11.5107 12.2761C11.5107 13.0342 12.1425 13.6406 12.9005 13.6406C13.6838 13.6659 14.3408 13.0342 14.3408 12.2256C14.3408 11.6697 14.0123 11.1896 13.5322 10.9622L13.6586 10.3557C13.7596 9.97668 13.4564 9.59766 13.0774 9.59766H6.30542L6.12854 8.78906H13.5322ZM10.9801 5.55469C11.2328 5.55469 11.3844 5.88318 11.1823 6.08533L9.48926 7.77832C9.36292 7.90466 9.18604 7.90466 9.05969 7.77832L7.3667 6.08533C7.16455 5.88318 7.31616 5.55469 7.56885 5.55469H8.68066V4.03857C8.68066 3.88696 8.80701 3.73535 8.98389 3.73535H9.59033C9.74194 3.73535 9.89355 3.88696 9.89355 4.03857V5.55469H10.9801Z" fill="white"/>
</svg>
