<svg width="11" height="12" viewBox="0 0 11 12" fill="none" xmlns="http://www.w3.org/2000/svg">
<path d="M9.9873 1.01367H7.46045L7.24988 0.634644C7.16565 0.466187 6.99719 0.339844 6.80768 0.339844H4.38611C4.19659 0.339844 4.02814 0.466187 3.94391 0.634644L3.75439 1.01367H1.22754C1.03802 1.01367 0.890625 1.18213 0.890625 1.35059V2.02441C0.890625 2.21393 1.03802 2.36133 1.22754 2.36133H9.9873C10.1558 2.36133 10.3242 2.21393 10.3242 2.02441V1.35059C10.3242 1.18213 10.1558 1.01367 9.9873 1.01367ZM2.00665 10.1735C2.02771 10.721 2.46991 11.1211 3.0174 11.1211H8.17639C8.72388 11.1211 9.16608 10.721 9.18713 10.1735L9.65039 3.03516H1.56445L2.00665 10.1735Z" fill="#868E96"/>
</svg>
